<?xml version="1.0" encoding="UTF-8" standalone="no"?>
<!-- Created with Inkscape (http://www.inkscape.org/) -->

<svg
   width="0.5in"
   height="0.17839304in"
   viewBox="0 0 12.7 4.5311831"
   version="1.1"
   id="svg1"
   inkscape:version="1.3.2 (091e20ef0f, 2023-11-25, custom)"
   sodipodi:docname="Kuffiyeh_olive_leaves.svg"
   inkscape:export-filename="../kuffiyeh_olive_leaves.png"
   inkscape:export-xdpi="100"
   inkscape:export-ydpi="100"
   xmlns:inkscape="http://www.inkscape.org/namespaces/inkscape"
   xmlns:sodipodi="http://sodipodi.sourceforge.net/DTD/sodipodi-0.dtd"
   xmlns="http://www.w3.org/2000/svg"
   xmlns:svg="http://www.w3.org/2000/svg">
  <sodipodi:namedview
     id="namedview1"
     pagecolor="#505050"
     bordercolor="#eeeeee"
     borderopacity="1"
     inkscape:showpageshadow="0"
     inkscape:pageopacity="0"
     inkscape:pagecheckerboard="0"
     inkscape:deskcolor="#d1d1d1"
     inkscape:document-units="mm"
     inkscape:zoom="11.985258"
     inkscape:cx="22.485958"
     inkscape:cy="15.477348"
     inkscape:window-width="1916"
     inkscape:window-height="997"
     inkscape:window-x="0"
     inkscape:window-y="60"
     inkscape:window-maximized="1"
     inkscape:current-layer="layer1" />
  <defs
     id="defs1">
    <inkscape:path-effect
       effect="bspline"
       id="path-effect42"
       is_visible="true"
       lpeversion="1.3"
       weight="33.333333"
       steps="2"
       helper_size="0"
       apply_no_weight="true"
       apply_with_weight="true"
       only_selected="false"
       uniform="false" />
    <inkscape:path-effect
       effect="bspline"
       id="path-effect40"
       is_visible="true"
       lpeversion="1.3"
       weight="33.333333"
       steps="2"
       helper_size="0"
       apply_no_weight="true"
       apply_with_weight="true"
       only_selected="false"
       uniform="false" />
    <inkscape:path-effect
       effect="bspline"
       id="path-effect38"
       is_visible="true"
       lpeversion="1.3"
       weight="33.333333"
       steps="2"
       helper_size="0"
       apply_no_weight="true"
       apply_with_weight="true"
       only_selected="false"
       uniform="false" />
    <inkscape:path-effect
       effect="bspline"
       id="path-effect36"
       is_visible="true"
       lpeversion="1.3"
       weight="33.333333"
       steps="2"
       helper_size="0"
       apply_no_weight="true"
       apply_with_weight="true"
       only_selected="false"
       uniform="false" />
    <inkscape:path-effect
       effect="bspline"
       id="path-effect34"
       is_visible="true"
       lpeversion="1.3"
       weight="33.333333"
       steps="2"
       helper_size="0"
       apply_no_weight="true"
       apply_with_weight="true"
       only_selected="false"
       uniform="false" />
    <inkscape:path-effect
       effect="bspline"
       id="path-effect32"
       is_visible="true"
       lpeversion="1.3"
       weight="33.333333"
       steps="2"
       helper_size="0"
       apply_no_weight="true"
       apply_with_weight="true"
       only_selected="false"
       uniform="false" />
    <inkscape:path-effect
       effect="bspline"
       id="path-effect30"
       is_visible="true"
       lpeversion="1.3"
       weight="33.333333"
       steps="2"
       helper_size="0"
       apply_no_weight="true"
       apply_with_weight="true"
       only_selected="false"
       uniform="false" />
    <inkscape:path-effect
       effect="bspline"
       id="path-effect28"
       is_visible="true"
       lpeversion="1.3"
       weight="33.333333"
       steps="2"
       helper_size="0"
       apply_no_weight="true"
       apply_with_weight="true"
       only_selected="false"
       uniform="false" />
    <inkscape:path-effect
       effect="bspline"
       id="path-effect26"
       is_visible="true"
       lpeversion="1.3"
       weight="33.333333"
       steps="2"
       helper_size="0"
       apply_no_weight="true"
       apply_with_weight="true"
       only_selected="false"
       uniform="false" />
    <inkscape:path-effect
       effect="bspline"
       id="path-effect24"
       is_visible="true"
       lpeversion="1.3"
       weight="33.333333"
       steps="2"
       helper_size="0"
       apply_no_weight="true"
       apply_with_weight="true"
       only_selected="false"
       uniform="false" />
    <inkscape:path-effect
       effect="bspline"
       id="path-effect18"
       is_visible="true"
       lpeversion="1.3"
       weight="33.333333"
       steps="2"
       helper_size="0"
       apply_no_weight="true"
       apply_with_weight="true"
       only_selected="false"
       uniform="false" />
    <inkscape:path-effect
       effect="bspline"
       id="path-effect16"
       is_visible="true"
       lpeversion="1.3"
       weight="33.333333"
       steps="2"
       helper_size="0"
       apply_no_weight="true"
       apply_with_weight="true"
       only_selected="false"
       uniform="false" />
    <inkscape:path-effect
       effect="bspline"
       id="path-effect14"
       is_visible="true"
       lpeversion="1.3"
       weight="33.333333"
       steps="2"
       helper_size="0"
       apply_no_weight="true"
       apply_with_weight="true"
       only_selected="false"
       uniform="false" />
    <inkscape:path-effect
       effect="bspline"
       id="path-effect12"
       is_visible="true"
       lpeversion="1.3"
       weight="33.333333"
       steps="2"
       helper_size="0"
       apply_no_weight="true"
       apply_with_weight="true"
       only_selected="false"
       uniform="false" />
    <inkscape:path-effect
       effect="bspline"
       id="path-effect10"
       is_visible="true"
       lpeversion="1.3"
       weight="33.333333"
       steps="2"
       helper_size="0"
       apply_no_weight="true"
       apply_with_weight="true"
       only_selected="false"
       uniform="false" />
    <inkscape:path-effect
       effect="bspline"
       id="path-effect8"
       is_visible="true"
       lpeversion="1.3"
       weight="33.333333"
       steps="2"
       helper_size="0"
       apply_no_weight="true"
       apply_with_weight="true"
       only_selected="false"
       uniform="false" />
    <inkscape:path-effect
       effect="bspline"
       id="path-effect6"
       is_visible="true"
       lpeversion="1.3"
       weight="33.333333"
       steps="2"
       helper_size="0"
       apply_no_weight="true"
       apply_with_weight="true"
       only_selected="false"
       uniform="false" />
  </defs>
  <g
     inkscape:label="Layer 1"
     inkscape:groupmode="layer"
     id="layer1"
     transform="translate(0.00566351,0.00170189)">
    <g
       id="g14"
       transform="matrix(0.05541055,0,0,0.05541055,-0.00566349,-1.4894722)">
      <path
         id="path7"
         style="fill:#000000;fill-opacity:1;stroke:#000000;stroke-width:0.264583px;stroke-linecap:butt;stroke-linejoin:miter;stroke-opacity:1"
         transform="matrix(0.850252,0,0,0.95634136,-24.262721,8.1810651)"
         inkscape:path-effect="#path-effect8"
         inkscape:original-d="m 28.665685,19.538481 c 3.880391,19.580964 7.760781,39.161926 11.641172,58.742892 37.144298,0 74.287113,0 111.430663,0 3.88042,8.892654 7.76069,17.784953 11.64103,26.677427 m 0,0 c -3.88034,-14.18414 -7.76061,-28.368001 -11.64103,-42.552427 -37.14355,0 -74.286365,0 -111.430663,0 C 36.426466,48.117074 32.546075,33.827778 28.665685,19.538481"
         d="m 28.665685,19.538481 c 3.880391,19.580964 7.760781,39.161926 28.273125,48.952409 20.512345,9.790483 57.65516,9.790483 78.16715,14.23681 20.51198,4.446327 24.39225,13.338627 28.27259,22.2311 m 0,0 C 159.49821,90.774661 155.61794,76.590799 135.10596,69.498586 114.59397,62.406373 77.451155,62.406373 56.93881,55.261724 36.426466,48.117074 32.546076,33.827778 28.665685,19.538481"
         sodipodi:nodetypes="cccccccc" />
      <path
         id="path12"
         style="fill:#000000;fill-opacity:1;stroke:#000000;stroke-width:0.264583px;stroke-linecap:butt;stroke-linejoin:miter;stroke-opacity:1"
         transform="matrix(-0.850252,0,0,0.95634136,253.56316,8.1810651)"
         inkscape:path-effect="#path-effect14"
         inkscape:original-d="m 28.665685,19.538481 c 3.880391,19.580964 7.760781,39.161926 11.641172,58.742892 37.144298,0 74.287113,0 111.430663,0 3.88042,8.892654 7.76069,17.784953 11.64103,26.677427 m 0,0 c -3.88034,-14.18414 -7.76061,-28.368001 -11.64103,-42.552427 -37.14355,0 -74.286365,0 -111.430663,0 C 36.426466,48.117074 32.546075,33.827778 28.665685,19.538481"
         d="m 28.665685,19.538481 c 3.880391,19.580964 7.760781,39.161926 28.273125,48.952409 20.512345,9.790483 57.65516,9.790483 78.16715,14.23681 20.51198,4.446327 24.39225,13.338627 28.27259,22.2311 m 0,0 C 159.49821,90.774661 155.61794,76.590799 135.10596,69.498586 114.59397,62.406373 77.451155,62.406373 56.93881,55.261724 36.426466,48.117074 32.546076,33.827778 28.665685,19.538481"
         sodipodi:nodetypes="cccccccc" />
    </g>
    <g
       id="g23"
       transform="matrix(0.05541055,0,0,0.05541055,-0.00566349,-6.0197368)">
      <path
         id="path22"
         style="fill:#000000;fill-opacity:1;stroke:#000000;stroke-width:0.264583px;stroke-linecap:butt;stroke-linejoin:miter;stroke-opacity:1"
         transform="matrix(0.850252,0,0,0.95634136,-24.262721,8.1810651)"
         inkscape:path-effect="#path-effect24"
         inkscape:original-d="m 28.665685,19.538481 c 3.880391,19.580964 7.760781,39.161926 11.641172,58.742892 37.144298,0 74.287113,0 111.430663,0 3.88042,8.892654 7.76069,17.784953 11.64103,26.677427 m 0,0 c -3.88034,-14.18414 -7.76061,-28.368001 -11.64103,-42.552427 -37.14355,0 -74.286365,0 -111.430663,0 C 36.426466,48.117074 32.546075,33.827778 28.665685,19.538481"
         d="m 28.665685,19.538481 c 3.880391,19.580964 7.760781,39.161926 28.273125,48.952409 20.512345,9.790483 57.65516,9.790483 78.16715,14.23681 20.51198,4.446327 24.39225,13.338627 28.27259,22.2311 m 0,0 C 159.49821,90.774661 155.61794,76.590799 135.10596,69.498586 114.59397,62.406373 77.451155,62.406373 56.93881,55.261724 36.426466,48.117074 32.546076,33.827778 28.665685,19.538481"
         sodipodi:nodetypes="cccccccc" />
      <path
         id="path23"
         style="fill:#000000;fill-opacity:1;stroke:#000000;stroke-width:0.264583px;stroke-linecap:butt;stroke-linejoin:miter;stroke-opacity:1"
         transform="matrix(-0.850252,0,0,0.95634136,253.56316,8.1810651)"
         inkscape:path-effect="#path-effect26"
         inkscape:original-d="m 28.665685,19.538481 c 3.880391,19.580964 7.760781,39.161926 11.641172,58.742892 37.144298,0 74.287113,0 111.430663,0 3.88042,8.892654 7.76069,17.784953 11.64103,26.677427 m 0,0 c -3.88034,-14.18414 -7.76061,-28.368001 -11.64103,-42.552427 -37.14355,0 -74.286365,0 -111.430663,0 C 36.426466,48.117074 32.546075,33.827778 28.665685,19.538481"
         d="m 28.665685,19.538481 c 3.880391,19.580964 7.760781,39.161926 28.273125,48.952409 20.512345,9.790483 57.65516,9.790483 78.16715,14.23681 20.51198,4.446327 24.39225,13.338627 28.27259,22.2311 m 0,0 C 159.49821,90.774661 155.61794,76.590799 135.10596,69.498586 114.59397,62.406373 77.451155,62.406373 56.93881,55.261724 36.426466,48.117074 32.546076,33.827778 28.665685,19.538481"
         sodipodi:nodetypes="cccccccc" />
    </g>
    <g
       id="g31"
       transform="matrix(0.05541055,0,0,0.05541055,-0.00566349,-3.7546045)">
      <path
         id="path30"
         style="fill:#000000;fill-opacity:1;stroke:#000000;stroke-width:0.264583px;stroke-linecap:butt;stroke-linejoin:miter;stroke-opacity:1"
         transform="matrix(0.850252,0,0,0.95634136,-24.262721,8.1810651)"
         inkscape:path-effect="#path-effect32"
         inkscape:original-d="m 28.665685,19.538481 c 3.880391,19.580964 7.760781,39.161926 11.641172,58.742892 37.144298,0 74.287113,0 111.430663,0 3.88042,8.892654 7.76069,17.784953 11.64103,26.677427 m 0,0 c -3.88034,-14.18414 -7.76061,-28.368001 -11.64103,-42.552427 -37.14355,0 -74.286365,0 -111.430663,0 C 36.426466,48.117074 32.546075,33.827778 28.665685,19.538481"
         d="m 28.665685,19.538481 c 3.880391,19.580964 7.760781,39.161926 28.273125,48.952409 20.512345,9.790483 57.65516,9.790483 78.16715,14.23681 20.51198,4.446327 24.39225,13.338627 28.27259,22.2311 m 0,0 C 159.49821,90.774661 155.61794,76.590799 135.10596,69.498586 114.59397,62.406373 77.451155,62.406373 56.93881,55.261724 36.426466,48.117074 32.546076,33.827778 28.665685,19.538481"
         sodipodi:nodetypes="cccccccc" />
      <path
         id="path31"
         style="fill:#000000;fill-opacity:1;stroke:#000000;stroke-width:0.264583px;stroke-linecap:butt;stroke-linejoin:miter;stroke-opacity:1"
         transform="matrix(-0.850252,0,0,0.95634136,253.56316,8.1810651)"
         inkscape:path-effect="#path-effect34"
         inkscape:original-d="m 28.665685,19.538481 c 3.880391,19.580964 7.760781,39.161926 11.641172,58.742892 37.144298,0 74.287113,0 111.430663,0 3.88042,8.892654 7.76069,17.784953 11.64103,26.677427 m 0,0 c -3.88034,-14.18414 -7.76061,-28.368001 -11.64103,-42.552427 -37.14355,0 -74.286365,0 -111.430663,0 C 36.426466,48.117074 32.546075,33.827778 28.665685,19.538481"
         d="m 28.665685,19.538481 c 3.880391,19.580964 7.760781,39.161926 28.273125,48.952409 20.512345,9.790483 57.65516,9.790483 78.16715,14.23681 20.51198,4.446327 24.39225,13.338627 28.27259,22.2311 m 0,0 C 159.49821,90.774661 155.61794,76.590799 135.10596,69.498586 114.59397,62.406373 77.451155,62.406373 56.93881,55.261724 36.426466,48.117074 32.546076,33.827778 28.665685,19.538481"
         sodipodi:nodetypes="cccccccc" />
    </g>
    <g
       id="g35"
       transform="matrix(0.05541055,0,0,0.05541055,-0.00521323,3.0407924)">
      <path
         id="path34"
         style="fill:#000000;fill-opacity:1;stroke:#000000;stroke-width:0.264583px;stroke-linecap:butt;stroke-linejoin:miter;stroke-opacity:1"
         transform="matrix(0.850252,0,0,0.95634136,-24.262721,8.1810651)"
         inkscape:path-effect="#path-effect36"
         inkscape:original-d="m 28.665685,19.538481 c 3.880391,19.580964 7.760781,39.161926 11.641172,58.742892 37.144298,0 74.287113,0 111.430663,0 3.88042,8.892654 7.76069,17.784953 11.64103,26.677427 m 0,0 c -3.88034,-14.18414 -7.76061,-28.368001 -11.64103,-42.552427 -37.14355,0 -74.286365,0 -111.430663,0 C 36.426466,48.117074 32.546075,33.827778 28.665685,19.538481"
         d="m 28.665685,19.538481 c 3.880391,19.580964 7.760781,39.161926 28.273125,48.952409 20.512345,9.790483 57.65516,9.790483 78.16715,14.23681 20.51198,4.446327 24.39225,13.338627 28.27259,22.2311 m 0,0 C 159.49821,90.774661 155.61794,76.590799 135.10596,69.498586 114.59397,62.406373 77.451155,62.406373 56.93881,55.261724 36.426466,48.117074 32.546076,33.827778 28.665685,19.538481"
         sodipodi:nodetypes="cccccccc" />
      <path
         id="path35"
         style="fill:#000000;fill-opacity:1;stroke:#000000;stroke-width:0.264583px;stroke-linecap:butt;stroke-linejoin:miter;stroke-opacity:1"
         transform="matrix(-0.850252,0,0,0.95634136,253.56316,8.1810651)"
         inkscape:path-effect="#path-effect38"
         inkscape:original-d="m 28.665685,19.538481 c 3.880391,19.580964 7.760781,39.161926 11.641172,58.742892 37.144298,0 74.287113,0 111.430663,0 3.88042,8.892654 7.76069,17.784953 11.64103,26.677427 m 0,0 c -3.88034,-14.18414 -7.76061,-28.368001 -11.64103,-42.552427 -37.14355,0 -74.286365,0 -111.430663,0 C 36.426466,48.117074 32.546075,33.827778 28.665685,19.538481"
         d="m 28.665685,19.538481 c 3.880391,19.580964 7.760781,39.161926 28.273125,48.952409 20.512345,9.790483 57.65516,9.790483 78.16715,14.23681 20.51198,4.446327 24.39225,13.338627 28.27259,22.2311 m 0,0 C 159.49821,90.774661 155.61794,76.590799 135.10596,69.498586 114.59397,62.406373 77.451155,62.406373 56.93881,55.261724 36.426466,48.117074 32.546076,33.827778 28.665685,19.538481"
         sodipodi:nodetypes="cccccccc" />
    </g>
    <g
       id="g39"
       transform="matrix(0.05541055,0,0,0.05541055,-0.00521323,0.7756601)">
      <path
         id="path38"
         style="fill:#000000;fill-opacity:1;stroke:#000000;stroke-width:0.264583px;stroke-linecap:butt;stroke-linejoin:miter;stroke-opacity:1"
         transform="matrix(0.850252,0,0,0.95634136,-24.262721,8.1810651)"
         inkscape:path-effect="#path-effect40"
         inkscape:original-d="m 28.665685,19.538481 c 3.880391,19.580964 7.760781,39.161926 11.641172,58.742892 37.144298,0 74.287113,0 111.430663,0 3.88042,8.892654 7.76069,17.784953 11.64103,26.677427 m 0,0 c -3.88034,-14.18414 -7.76061,-28.368001 -11.64103,-42.552427 -37.14355,0 -74.286365,0 -111.430663,0 C 36.426466,48.117074 32.546075,33.827778 28.665685,19.538481"
         d="m 28.665685,19.538481 c 3.880391,19.580964 7.760781,39.161926 28.273125,48.952409 20.512345,9.790483 57.65516,9.790483 78.16715,14.23681 20.51198,4.446327 24.39225,13.338627 28.27259,22.2311 m 0,0 C 159.49821,90.774661 155.61794,76.590799 135.10596,69.498586 114.59397,62.406373 77.451155,62.406373 56.93881,55.261724 36.426466,48.117074 32.546076,33.827778 28.665685,19.538481"
         sodipodi:nodetypes="cccccccc" />
      <path
         id="path39"
         style="fill:#000000;fill-opacity:1;stroke:#000000;stroke-width:0.264583px;stroke-linecap:butt;stroke-linejoin:miter;stroke-opacity:1"
         transform="matrix(-0.850252,0,0,0.95634136,253.56316,8.1810651)"
         inkscape:path-effect="#path-effect42"
         inkscape:original-d="m 28.665685,19.538481 c 3.880391,19.580964 7.760781,39.161926 11.641172,58.742892 37.144298,0 74.287113,0 111.430663,0 3.88042,8.892654 7.76069,17.784953 11.64103,26.677427 m 0,0 c -3.88034,-14.18414 -7.76061,-28.368001 -11.64103,-42.552427 -37.14355,0 -74.286365,0 -111.430663,0 C 36.426466,48.117074 32.546075,33.827778 28.665685,19.538481"
         d="m 28.665685,19.538481 c 3.880391,19.580964 7.760781,39.161926 28.273125,48.952409 20.512345,9.790483 57.65516,9.790483 78.16715,14.23681 20.51198,4.446327 24.39225,13.338627 28.27259,22.2311 m 0,0 C 159.49821,90.774661 155.61794,76.590799 135.10596,69.498586 114.59397,62.406373 77.451155,62.406373 56.93881,55.261724 36.426466,48.117074 32.546076,33.827778 28.665685,19.538481"
         sodipodi:nodetypes="cccccccc" />
    </g>
  </g>
</svg>
